<?xml version="1.0" encoding="UTF-8"?>
<svg xmlns="http://www.w3.org/2000/svg" width="24.277" height="22.724" viewBox="0 0 24.277 22.724">
  <g id="_24-hours-phone-service" data-name="24-hours-phone-service" transform="translate(0 -19.573)">
    <path id="Path_79" data-name="Path 79" d="M13.459,19.573a10.811,10.811,0,0,0-8.853,4.611,5.291,5.291,0,0,1,1.183,1.094,9.231,9.231,0,0,1,6.559-4.048l1.111,1.879L14.57,21.23a9.245,9.245,0,0,1,8.05,8.05l-1.88,1.111L22.62,31.5a9.235,9.235,0,0,1-4.231,6.679,2.808,2.808,0,0,1,.242,1.02,2.7,2.7,0,0,1-.069.726,10.816,10.816,0,0,0-5.1-20.353ZM16.22,37.389c-2.494-2-3.191-1.019-4.323.112-.79.79-2.789-.86-4.515-2.586S4.006,31.19,4.8,30.4c1.132-1.131,2.116-1.829.112-4.322s-3.34-.579-4.436.517C-.794,27.859.4,32.573,5.064,37.233S14.438,43.09,15.7,41.826C16.8,40.73,18.714,39.394,16.22,37.389ZM8.625,32.084c0-2.217,2.6-2.612,2.6-3.477a.593.593,0,0,0-.647-.6c-.571,0-.89.638-.89.638l-1.092-.73a2.316,2.316,0,0,1,2.116-1.293,1.873,1.873,0,0,1,2.049,1.839c0,1.873-2.418,2.234-2.461,3.006h2.553v1.26H8.692A3.668,3.668,0,0,1,8.625,32.084Zm4.838-1.7,2.318-3.662h1.8V30.06h.714v1.217h-.714V32.73H16.125V31.277H13.463v-.89Zm2.662-.328V28.716a5.361,5.361,0,0,1,.05-.672h-.017a3.187,3.187,0,0,1-.294.622l-.907,1.377v.017Z" transform="translate(0 0)" fill="#fff"></path>
  </g>
</svg>
