<?xml version="1.0" encoding="UTF-8"?>
<svg xmlns="http://www.w3.org/2000/svg" width="18" height="28" viewBox="0 0 18 28">
  <g id="ios-location-outline" transform="translate(-112 -32)">
    <path id="Path_76" data-name="Path 76" d="M121,33a8,8,0,0,1,8,8c0,2.682-1.506,6.7-4.354,11.605-1.392,2.4-2.8,4.477-3.646,5.683-.845-1.2-2.245-3.27-3.635-5.665C114.509,47.705,113,43.686,113,41a8,8,0,0,1,8-8m0-1a9,9,0,0,0-9,9c0,7,9,19,9,19s9-12,9-19a9,9,0,0,0-9-9Z" fill="#fff"></path>
    <path id="Path_77" data-name="Path 77" d="M196,112a4,4,0,1,0,4,4A4,4,0,0,0,196,112Zm0,6.931A2.931,2.931,0,1,1,198.931,116,2.931,2.931,0,0,1,196,118.931Z" transform="translate(-75 -75)" fill="#fff"></path>
  </g>
</svg>
