<?xml version="1.0" encoding="UTF-8"?>
<svg xmlns="http://www.w3.org/2000/svg" xmlns:xlink="http://www.w3.org/1999/xlink" width="93" height="10" viewBox="0 0 93 10">
  <defs>
    <clipPath id="clip-path">
      <rect id="Rectangle_133" data-name="Rectangle 133" width="93" height="10" transform="translate(525 7564)" fill="#fff"></rect>
    </clipPath>
  </defs>
  <g id="Mask_Group_8" data-name="Mask Group 8" transform="translate(-525 -7564)" clip-path="url(#clip-path)">
    <g id="Layer_2" data-name="Layer 2" transform="translate(525.001 7564)">
      <g id="Layer_1" data-name="Layer 1" transform="translate(0 0)">
        <path id="Path_2941" data-name="Path 2941" d="M4.275,0A3.73,3.73,0,0,1,6.842,1.071a1.96,1.96,0,0,1,0-.228V.534A.422.422,0,0,1,7.263.056q.514,0,.514.616a1.951,1.951,0,0,1,0,.3l-.114.7a3.741,3.741,0,0,0,0,.639V3.569c0,.434-.171.65-.525.65s-.5-.24-.5-.706v-.4a1.96,1.96,0,0,0-.65-1.563A2.532,2.532,0,0,0,4.231.969a2.532,2.532,0,0,0-2.169,1.14,4.87,4.87,0,0,0-.784,2.942,5.235,5.235,0,0,0,.81,3.114A2.623,2.623,0,0,0,4.369,9.306a2.213,2.213,0,0,0,1.711-.65,2.6,2.6,0,0,0,.6-1.836,1.026,1.026,0,0,0-.171-.684.684.684,0,0,0-.582-.194H5.223q-.684,0-.684-.479c0-.342.194-.5.593-.5h.409A10.174,10.174,0,0,0,6.99,5.1a8.771,8.771,0,0,0,1.494-.137,2.03,2.03,0,0,1,.388,0c.376,0,.57.157.57.47a.5.5,0,0,1-.5.491H8.461c-.411,0-.627.47-.627,1.392v1.14a6.022,6.022,0,0,0,.034.673v.47q0,.582-.514.582a.445.445,0,0,1-.514-.559V8.833a4.437,4.437,0,0,1-.514.616,3.421,3.421,0,0,1-2.282.742A3.672,3.672,0,0,1,1.138,8.822,5.52,5.52,0,0,1,0,5.211a5.874,5.874,0,0,1,1.141-3.8A3.821,3.821,0,0,1,4.275,0Z" transform="translate(0.011 0.005)" fill="#fff"></path>
        <path id="Path_2942" data-name="Path 2942" d="M14.512,2.354c0-.706-.251-1.061-.742-1.061l-.3-.078a1.768,1.768,0,0,1-.388,0,.392.392,0,0,1-.308,0A.456.456,0,0,1,12.64.839c0-.342.205-.5.6-.5h.216l2,.137h.137L19.017.381h1.152q.81-.045.81.6V3.267a6.045,6.045,0,0,1,.057.616q0,.549-.514.549c-.342,0-.514-.251-.514-.764V2.924c0-.8-.157-1.277-.5-1.411a6.25,6.25,0,0,0-1.951-.157,7.6,7.6,0,0,0-1.141,0,.775.775,0,0,0-.616.855V3.689c0,.376.078.593.251.65a1.2,1.2,0,0,0,.342,0h.57q.89,0,.89-.616a3.741,3.741,0,0,0,0-.445,3.946,3.946,0,0,1,0-.491c0-.376.171-.57.514-.57s.5.205.5.616a4.958,4.958,0,0,1-.091.89A11.229,11.229,0,0,0,18.7,4.864a8.24,8.24,0,0,0,.057,1.011,1.588,1.588,0,0,0,.078.5,4.8,4.8,0,0,1-.137.536.456.456,0,0,1-.514.514c-.331,0-.5-.205-.5-.6a4.492,4.492,0,0,1,0-.456,4.494,4.494,0,0,0,0-.456c0-.411-.263-.616-.81-.616h-.648c-.274,0-.445,0-.5.137a1.266,1.266,0,0,0-.091.616V8.168c0,.376.091.616.228.706a1.665,1.665,0,0,0,.753.1H18.55a1.9,1.9,0,0,0,1.141-.251,1.141,1.141,0,0,0,.319-.935c0-.148,0-.354,0-.639V6.518c0-.434.171-.639.514-.639s.536.216.536.65V9.3a.593.593,0,0,1-.662.673h-4.38a24.986,24.986,0,0,0-2.635.091h-.137c-.4,0-.6-.171-.6-.514s.148-.47.445-.47h.386a1.449,1.449,0,0,0,.3,0c.491,0,.742-.365.742-1.084Z" transform="translate(-2.721 -0.069)" fill="#fff"></path>
        <path id="Path_2943" data-name="Path 2943" d="M32.334,4.65a4.46,4.46,0,0,1-1.061.342,1.745,1.745,0,0,1,1.141.627A2.966,2.966,0,0,1,32.745,7.2v.867q0,1.026.65,1.026c.445,0,.662-.4.662-1.221V6.863a2,2,0,0,1,.057-.57.456.456,0,0,1,.445-.24c.342,0,.514.194.514.593V8.071a1.46,1.46,0,0,0,0,.251,1.629,1.629,0,0,1-1.77,1.77A1.505,1.505,0,0,1,31.6,8.32V7.091a1.654,1.654,0,0,0-.365-1.3,2.5,2.5,0,0,0-1.505-.308H28.411c-.308,0-.456.183-.456.559V8.32q.137.719.719.719h.673c.308,0,.456.157.456.479s-.205.5-.616.5H28.97l-.784-.114a5.144,5.144,0,0,0-.8,0,8.372,8.372,0,0,0-.993.068l-.7.078h-.216q-.616,0-.616-.514c0-.308.148-.47.445-.47H25.7a1.551,1.551,0,0,0,.308,0c.479,0,.73-.365.73-1.084V2.37c0-.719-.251-1.084-.73-1.084h-.7a.411.411,0,0,1-.263-.057A.434.434,0,0,1,24.909.91c0-.342.216-.5.639-.5h.194l.73.023a6.307,6.307,0,0,0,.719,0h3.08c2.11,0,3.16.8,3.16,2.4a1.928,1.928,0,0,1-1.1,1.825Zm-3.97-.114h1.346a3.787,3.787,0,0,0,1.813-.342,1.483,1.483,0,0,0,.73-1.392c0-1.084-.753-1.631-2.282-1.631a5.041,5.041,0,0,0-1.62.171.73.73,0,0,0-.434.719V4.183c0,.171,0,.274.078.308a.57.57,0,0,0,.365.068Z" transform="translate(-5.362 -0.084)" fill="#fff"></path>
        <path id="Path_2944" data-name="Path 2944" d="M46.671,2.6a2.144,2.144,0,0,1-1.665,2.064A5.212,5.212,0,0,1,46,5.077,2.2,2.2,0,0,1,47.139,7.1a2.5,2.5,0,0,1-1,2.064,4.312,4.312,0,0,1-2.714.784,13.706,13.706,0,0,1-1.563-.068A13.279,13.279,0,0,0,40.467,9.8a7.162,7.162,0,0,0-.73,0l-.684.171h-.205q-.616,0-.616-.514c0-.308.148-.47.445-.47h.684c.491,0,.742-.354.742-1.061V2.317c0-.719-.251-1.084-.742-1.084l-.308-.057a2.019,2.019,0,0,1-.388,0A.4.4,0,0,1,38.219.72c0-.342.216-.5.662-.5h.171l.706.091a5.144,5.144,0,0,0,.821,0,12.153,12.153,0,0,0,1.54-.078c.445,0,.935-.057,1.449-.057a3.639,3.639,0,0,1,2.282.6A2.019,2.019,0,0,1,46.671,2.6Zm-5.488.616a1.893,1.893,0,0,0,.137.935c.091.125.342.183.753.183h.8c1.688,0,2.532-.549,2.532-1.654s-.65-1.505-2.087-1.505a4.928,4.928,0,0,0-1.8.194c-.216.125-.331.445-.331.958Zm0,2.909V7.712c0,.627.1,1,.308,1.141a4.106,4.106,0,0,0,1.725.216c1.791,0,2.681-.673,2.681-2.007S45.037,5.21,43.315,5.21H42.174q-.784,0-.89.342a1.688,1.688,0,0,0-.1.575Z" transform="translate(-8.245 -0.032)" fill="#fff"></path>
        <path id="Path_2945" data-name="Path 2945" d="M52.758,2.354c0-.706-.251-1.061-.73-1.061H51.72a1.688,1.688,0,0,1-.388,0,.411.411,0,0,1-.308-.078A.445.445,0,0,1,50.91.839c0-.342.194-.5.593-.5h.216l2,.135h.148L57.286.381H58.45c.491,0,.742.216.742.65V2.616a5.3,5.3,0,0,0,0,.7,5.306,5.306,0,0,1,0,.616q0,.549-.514.549c-.331,0-.5-.251-.5-.764V2.928c0-.8-.171-1.277-.5-1.411a6.387,6.387,0,0,0-1.928-.157,7.7,7.7,0,0,0-1.2,0,.775.775,0,0,0-.616.855V3.689c0,.376.078.593.251.65a1.2,1.2,0,0,0,.342,0h.582q.89,0,.89-.616a3.741,3.741,0,0,0,0-.445,3.947,3.947,0,0,1,0-.491c0-.376.157-.57.5-.57s.514.205.514.616a4.958,4.958,0,0,1-.091.89,8.93,8.93,0,0,0-.078,1.141V5.879a1.834,1.834,0,0,0,.068.5,1.189,1.189,0,0,1,0,.5.456.456,0,0,1-.525.514c-.331,0-.491-.205-.491-.6a4.493,4.493,0,0,1,0-.456,4.493,4.493,0,0,0,0-.456q0-.616-.821-.616h-.639q-.422,0-.514.137a1.425,1.425,0,0,0-.091.616V8.173c0,.376.091.616.24.706a1.646,1.646,0,0,0,.742.1h1.948A1.882,1.882,0,0,0,57.9,8.73a1.141,1.141,0,0,0,.319-.935V6.518c0-.434.171-.639.514-.639s.536.216.536.65V9.3a.593.593,0,0,1-.662.673H56.335l-2.007-.057a25.2,25.2,0,0,0-2.635.091h-.216c-.4,0-.593-.171-.593-.514s.148-.47.434-.47h.388a1.551,1.551,0,0,0,.308,0c.479,0,.73-.365.73-1.084Z" transform="translate(-10.981 -0.069)" fill="#fff"></path>
        <path id="Path_2946" data-name="Path 2946" d="M70.593,4.65a4.46,4.46,0,0,1-1.061.342,1.745,1.745,0,0,1,1.141.627,2.852,2.852,0,0,1,.319,1.563v.89q0,1.026.65,1.026c.445,0,.662-.4.662-1.221V6.863a2,2,0,0,1,0-.57.456.456,0,0,1,.445-.24c.342,0,.525.194.525.593V8.32a1.756,1.756,0,0,1-.47,1.3,1.756,1.756,0,0,1-1.289.47,1.505,1.505,0,0,1-1.7-1.711V7.091a1.608,1.608,0,0,0-.285-1.3,2.5,2.5,0,0,0-1.505-.308H66.67c-.308,0-.456.183-.456.559V7.183a10.107,10.107,0,0,0,0,1.141c.078.479.319.719.706.719h.7a.422.422,0,0,1,.47.479c0,.331-.205.5-.616.5h-.216l-.775-.091a5.1,5.1,0,0,0-.784,0,8.545,8.545,0,0,0-1,.068L64,10.079h-.216q-.616,0-.616-.514c0-.308.148-.47.445-.47H64a1.448,1.448,0,0,0,.3,0c.491,0,.73-.365.73-1.084V2.37c0-.719-.24-1.084-.73-1.084h-.684a.434.434,0,0,1-.308-.057A.422.422,0,0,1,63.183.91c0-.342.205-.5.627-.5h.205l.73.023a5.954,5.954,0,0,0,.706,0h3.136q3.148,0,3.148,2.4a1.928,1.928,0,0,1-1.141,1.825Zm-3.97-.114h1.346a3.752,3.752,0,0,0,1.81-.343A1.46,1.46,0,0,0,70.51,2.8c0-1.084-.753-1.631-2.282-1.631a5.087,5.087,0,0,0-1.616.171.753.753,0,0,0-.434.719V4.183c0,.171,0,.274.091.308a.525.525,0,0,0,.354.068Z" transform="translate(-13.635 -0.084)" fill="#fff"></path>
        <path id="Path_2947" data-name="Path 2947" d="M84.187,8.314,83.663,6.9a.662.662,0,0,0-.168-.3.946.946,0,0,0-.388,0H80.56a.6.6,0,0,0-.4.1,1.9,1.9,0,0,0-.274.549l-.422,1.141a.97.97,0,0,0-.057.3c0,.308.194.456.559.456h.81c.388,0,.582.171.582.5s-.216.479-.639.479H80.4l-.719-.091H78.324l-.6.068-.582.057c-.376,0-.559-.157-.559-.479s.171-.5.536-.5a.24.24,0,0,1,.171.057h.194a.673.673,0,0,0,.582-.3,3.285,3.285,0,0,0,.285-.684L81.013.867a.867.867,0,0,1,.9-.606A.844.844,0,0,1,82.8.854l2.566,7.106a2.587,2.587,0,0,0,.445.89.706.706,0,0,0,.57.216.365.365,0,0,0,.171,0h.4q.549,0,.549.479c0,.331-.183.5-.549.5h-.408a10.22,10.22,0,0,0-3.068,0h-.456c-.388,0-.582-.171-.582-.491s.216-.491.639-.491h.753c.319,0,.479-.125.479-.388a2.98,2.98,0,0,0-.114-.365ZM83.149,5.382,81.86,1.436,80.549,5.382v.1c0,.091.068.125.216.125h2.282c.114,0,.171,0,.171-.114a.491.491,0,0,0-.068-.114Z" transform="translate(-16.531 -0.052)" fill="#fff"></path>
        <path id="Path_2948" data-name="Path 2948" d="M98.078,4.23a5.874,5.874,0,0,1-.878.376,2.532,2.532,0,0,1,2.282,2.635,2.475,2.475,0,0,1-.946,2.1,3.787,3.787,0,0,1-2.282.593H91.371c-.194,0-.3,0-.3-.157s.1-.205.319-.205h.8a.582.582,0,0,0,.57-.285,1.745,1.745,0,0,0,.114-.7V1.612a2.03,2.03,0,0,0-.24-.684.593.593,0,0,0-.582-.285,4.255,4.255,0,0,0-.456,0h-.342c-.216,0-.319-.057-.319-.183s.1-.183.3-.183h.319a4.414,4.414,0,0,1,.582,0h2.122c.651,0,1.211-.062,1.678-.062a3.92,3.92,0,0,1,2.133.456,1.882,1.882,0,0,1,.89,1.677,1.939,1.939,0,0,1-.878,1.882Zm-4.9-.344c0,.342.091.536.274.593a1.505,1.505,0,0,0,.456,0h1.312a12.034,12.034,0,0,0,1.357,0,2.714,2.714,0,0,0,1.254-.456,1.711,1.711,0,0,0,.784-1.517A1.653,1.653,0,0,0,97.778.988,3.422,3.422,0,0,0,95.991.637H93.869a1.049,1.049,0,0,0-.593.148,1.346,1.346,0,0,0-.1.7Zm0,4.984c0,.308.068.491.216.57a1.756,1.756,0,0,0,.706.114l.913.057h.8a10.428,10.428,0,0,0,1.254-.057A2.43,2.43,0,0,0,98.2,9.075a2.361,2.361,0,0,0,.833-1.9,2.122,2.122,0,0,0-2.019-2.282,9.5,9.5,0,0,0-1.472-.1h-1.9a.6.6,0,0,0-.365.114.684.684,0,0,0-.1.3Z" transform="translate(-19.631 -0.041)" fill="#fff"></path>
        <path id="Path_2949" data-name="Path 2949" d="M105.817.976V8.665a1.745,1.745,0,0,0,.114.7.627.627,0,0,0,.593.285h.821q.308,0,.308.205t-.308.171h-3.411c-.194,0-.3-.057-.3-.171s.1-.205.308-.205h.775a.616.616,0,0,0,.549-.216,1.552,1.552,0,0,0,.157-.764V1.432a1.369,1.369,0,0,0-.1-.559.479.479,0,0,0-.479-.228h-.852c-.216,0-.319-.068-.319-.194s.091-.205.285-.205h1.585a2.475,2.475,0,0,0,.47-.057c.216,0,.388.148.5.456L109.527,9.3a.137.137,0,0,0,.114.137c.035,0,.078-.057.114-.157L112.923.825c.114-.319.274-.47.47-.47h1.5a4.155,4.155,0,0,1,.491,0c.194,0,.285,0,.285.171s-.091.171-.285.171h-.89c-.434,0-.662.251-.662.753V8.665a1.7,1.7,0,0,0,.125.7.616.616,0,0,0,.6.285h.8q.308,0,.308.205c0,.114-.091.171-.285.171h-.376l-.9-.068h-.673a5.214,5.214,0,0,0-.753.057h-.719q-.308,0-.308-.171c0-.137.1-.205.319-.205h.331a2.818,2.818,0,0,0,.445,0,.582.582,0,0,0,.57-.285,1.744,1.744,0,0,0,.114-.7V.76l-.069.065V.882l-3.353,8.589c-.114.285-.251.422-.422.422s-.308-.137-.411-.422L106.057.925q-.068-.205-.137-.205C105.851.725,105.817.805,105.817.976Z" transform="translate(-22.374 -0.037)" fill="#fff"></path>
      </g>
    </g>
  </g>
</svg>
