<?xml version="1.0" encoding="UTF-8"?>
<svg xmlns="http://www.w3.org/2000/svg" width="18" height="17.997" viewBox="0 0 18 17.997">
  <path id="Path_75" data-name="Path 75" d="M129.906,126.356l-.09-.273a2.534,2.534,0,0,0-1.547-1.461l-2.365-.646a2.317,2.317,0,0,0-2.025.531l-.855.855a9.085,9.085,0,0,1-6.388-6.39l.855-.855a2.319,2.319,0,0,0,.529-2.025l-.645-2.365a2.531,2.531,0,0,0-1.463-1.547l-.27-.09a2.14,2.14,0,0,0-2,.473l-1.281,1.281a2.385,2.385,0,0,0-.375.879A15.109,15.109,0,0,0,127.234,130a2.358,2.358,0,0,0,.92-.371l1.281-1.281A2.142,2.142,0,0,0,129.906,126.356Z" transform="translate(-111.986 -112.008)" fill="#fff"></path>
</svg>
