<?xml version="1.0" encoding="UTF-8"?>
<svg xmlns="http://www.w3.org/2000/svg" width="303.767" height="268.652" viewBox="0 0 303.767 268.652">
  <g id="Group_45" data-name="Group 45" transform="translate(-181 -4314)">
    <path id="Path_81" data-name="Path 81" d="M295.317,117.863h8.233v-88.8h-8.233s-6.5,36.384-57.175,9.1c0,0-93.991-35.519-142.5-13.863,0,0-82.3,12.562-70.6,83.6,0,0,12.129,43.312,108.287,58.9,0,0,124.745,22.525,141.2,45.482,0,0,32.055,42.447-36.816,57.175,0,0-154.634,20.791-199.247-105.688H28.932V280.726H37.6s16.458-41.586,83.6-12.562c0,0,110.454,51.108,189.284-19.926,0,0,74.07-95.725-85.33-120.849,0,0-150.734-19.057-154.2-54.144,0,0-1.3-47.212,77.533-45.046C148.484,28.2,263.919,24.845,295.317,117.863Z" transform="translate(157.103 4296.698)" fill="#fff" opacity="0.102"></path>
    <g id="Group_7" data-name="Group 7" transform="translate(-73 928)">
      <rect id="Rectangle_15" data-name="Rectangle 15" width="132.769" height="109" rx="17.576" transform="translate(339 3466)" fill="#fff"></rect>
      <path id="Path_72" data-name="Path 72" d="M95.61,43.872h2.175V20.41H95.61s-1.716,9.613-15.106,2.4c0,0-24.834-9.385-37.652-3.663,0,0-21.745,3.319-18.654,22.088,0,0,3.2,11.444,28.611,15.563,0,0,32.96,5.951,37.308,12.017,0,0,8.47,11.215-9.727,15.106,0,0-40.857,5.493-52.644-27.924H25.227V86.9h2.29S31.865,75.915,49.6,83.584c0,0,29.183,13.5,50.012-5.265,0,0,19.57-25.292-22.545-31.93,0,0-39.826-5.035-40.741-14.306,0,0-.344-12.474,20.485-11.9C56.815,20.182,87.314,19.295,95.61,43.872Z" transform="translate(341.357 3467.71)" fill="#4c76ba"></path>
    </g>
  </g>
</svg>
