<?xml version="1.0" encoding="UTF-8"?>
<svg xmlns="http://www.w3.org/2000/svg" width="689.729" height="610" viewBox="0 0 689.729 610">
  <path id="Path_59" data-name="Path 59" d="M640.18,245.635h18.694V44.012H640.18S625.432,126.625,510.359,64.67c0,0-213.416-80.649-323.57-31.478,0,0-186.866,28.523-160.307,189.821,0,0,27.541,98.343,245.876,133.748,0,0,283.245,51.145,320.615,103.271,0,0,72.785,96.379-83.6,129.821,0,0-351.111,47.207-452.409-239.975H35.329V615.431H55s37.369-94.425,189.812-28.523c0,0,250.795,116.045,429.787-45.244,0,0,168.181-217.353-193.749-274.4,0,0-342.255-43.27-350.119-122.938,0,0-2.955-107.2,176.046-102.28C306.782,42.048,568.887,34.429,640.18,245.635Z" transform="translate(-23.897 -17.302)" fill="#dbdbdb" opacity="0.66"></path>
</svg>
