<?xml version="1.0" encoding="UTF-8"?>
<svg xmlns="http://www.w3.org/2000/svg" width="350" height="76.563" viewBox="0 0 350 76.563">
  <g id="Group_47" data-name="Group 47" transform="translate(-900 -44)">
    <path id="Path_1" data-name="Path 1" d="M143.568,40.834a14.632,14.632,0,0,0,6.475,1.546c3.139,0,4.886-1.33,4.886-3.308,0-1.833-1.351-2.912-4.768-4.026-4.41-1.438-7.229-3.559-7.229-7.046,0-3.955,3.654-6.975,9.454-6.975a15.389,15.389,0,0,1,6.436,1.222l-1.192,3.559a12.282,12.282,0,0,0-5.323-1.151c-3.1,0-4.449,1.51-4.449,2.912,0,1.87,1.549,2.733,5.124,3.99,4.648,1.582,6.912,3.7,6.912,7.19,0,3.882-3.257,7.3-10.169,7.3a17.224,17.224,0,0,1-7.23-1.546Z" transform="translate(867.469 39.2)" fill="#292c63"></path>
    <path id="Path_2" data-name="Path 2" d="M176.753,21.538v9.706h11.6V21.538h5.006V45.769h-5.006V35.091h-11.6V45.769h-5.006V21.538Z" transform="translate(860.791 39.083)" fill="#292c63"></path>
    <path id="Path_3" data-name="Path 3" d="M213.031,38.9l-2.4,6.867H205.39l8.922-24.231H220.8l9.046,24.231h-5.452L221.87,38.9ZM221,35.558l-2.189-5.968c-.536-1.474-.991-3.128-1.4-4.53h-.083c-.414,1.4-.826,3.092-1.322,4.53l-2.148,5.968Z" transform="translate(853.11 39.083)" fill="#292c63"></path>
    <path id="Path_4" data-name="Path 4" d="M242.83,21.808a49.711,49.711,0,0,1,7.285-.5c3.8,0,6.384.575,8.147,1.941a5.918,5.918,0,0,1,2.271,4.854,6.551,6.551,0,0,1-4.778,6.076v.107c1.88.647,3.016,2.337,3.682,4.674a45.356,45.356,0,0,0,2.075,6.759h-4.974A32.078,32.078,0,0,1,254.776,40c-.744-3.163-2-4.17-4.739-4.242h-2.429v9.959H242.83Zm4.778,10.714h2.859c3.251,0,5.288-1.582,5.288-3.991,0-2.66-2.036-3.882-5.17-3.882a15.12,15.12,0,0,0-2.977.215Z" transform="translate(844.562 39.136)" fill="#292c63"></path>
    <path id="Path_5" data-name="Path 5" d="M272.8,21.808a45.952,45.952,0,0,1,7.409-.5c3.548,0,6.149.683,7.844,1.977a6.6,6.6,0,0,1,2.6,5.356,7,7,0,0,1-2.287,5.5c-1.931,1.762-4.966,2.588-8.395,2.588a14.946,14.946,0,0,1-2.365-.144v9.132H272.8ZM277.6,33.1a10.673,10.673,0,0,0,2.365.18c3.626,0,5.833-1.618,5.833-4.458,0-2.7-2.05-4.134-5.4-4.134a14.569,14.569,0,0,0-2.8.216Z" transform="translate(837.721 39.136)" fill="#292c63"></path>
    <path id="Path_6" data-name="Path 6" d="M302.369,39.191a18.473,18.473,0,0,0,7.157,1.51c2.536,0,3.763-.755,3.763-1.977,0-1.187-1.227-1.834-4.335-2.769-4.662-1.474-7.769-3.7-7.769-7.3,0-4.278,4.13-7.586,11.082-7.586a20.571,20.571,0,0,1,7.442,1.222l-1.553,5.213a16,16,0,0,0-5.971-1.151c-2.249,0-3.477.718-3.477,1.8,0,1.222,1.472,1.69,4.949,2.841,4.948,1.617,7.156,3.919,7.156,7.3,0,4.171-3.68,7.729-11.737,7.729a21.808,21.808,0,0,1-8.1-1.474Z" transform="translate(831.287 39.189)" fill="#4c76ba"></path>
    <path id="Path_7" data-name="Path 7" d="M340.038,21.538v8.987h8.923V21.538h7.375V45.769h-7.375V36.206h-8.923v9.563h-7.375V21.538Z" transform="translate(824.054 39.083)" fill="#4c76ba"></path>
    <path id="Path_8" data-name="Path 8" d="M388.22,35.99h-9.855v4.458H389.4v5.321H370.994V21.538H388.83v5.32H378.365v3.883h9.855Z" transform="translate(815.303 39.083)" fill="#4c76ba"></path>
    <path id="Path_9" data-name="Path 9" d="M400.9,21.538h7.424v18.8h10.622v5.429H400.9Z" transform="translate(808.475 39.083)" fill="#4c76ba"></path>
    <path id="Path_10" data-name="Path 10" d="M429.617,21.538h7.6v18.8h10.868v5.429H429.617Z" transform="translate(801.919 39.083)" fill="#4c76ba"></path>
    <path id="Path_11" data-name="Path 11" d="M148.877,69.918H146.7v2.908h2.474V74.09h-3.928V64.929h3.765v1.264H146.7v2.515h2.174Z" transform="translate(866.84 29.114)" fill="#292c63"></path>
    <path id="Path_12" data-name="Path 12" d="M152.066,70.243c0-.747-.028-1.277-.055-1.862h1.264l.068.774h.028a1.776,1.776,0,0,1,1.562-.883c1.115,0,1.7.857,1.7,2.392V75h-1.455V70.8c0-.666-.135-1.3-.774-1.3-.353,0-.68.272-.816.816a2.254,2.254,0,0,0-.068.6V75h-1.454Z" transform="translate(864.999 28.204)" fill="#292c63"></path>
    <path id="Path_13" data-name="Path 13" d="M164.56,74.212c0,1.563-.245,2.284-.734,2.786a2.648,2.648,0,0,1-1.971.721,3.914,3.914,0,0,1-1.577-.313l.3-1.128a2.789,2.789,0,0,0,1.25.285c.87,0,1.291-.557,1.291-1.794v-.517h-.027a1.325,1.325,0,0,1-1.223.72c-1.346,0-2.011-1.495-2.011-3.235,0-2.311,1.046-3.466,2.161-3.466a1.34,1.34,0,0,1,1.223.816h.028l.081-.707h1.277c-.04.544-.068,1.183-.068,2.079Zm-1.441-3.479a1.776,1.776,0,0,0-.068-.49c-.1-.353-.3-.747-.734-.747-.693,0-1.019.938-1.019,2.188,0,1.441.434,2.134.992,2.134.271,0,.584-.135.747-.693a1.547,1.547,0,0,0,.082-.557Z" transform="translate(862.862 28.204)" fill="#292c63"></path>
    <path id="Path_14" data-name="Path 14" d="M168.8,66.577a.847.847,0,0,1,.014-1.686.845.845,0,0,1,0,1.686Zm-.694,7.5V67.461h1.455v6.619Z" transform="translate(860.635 29.125)" fill="#292c63"></path>
    <path id="Path_15" data-name="Path 15" d="M171.941,70.243c0-.747-.027-1.277-.055-1.862h1.264l.068.774h.027a1.778,1.778,0,0,1,1.563-.883c1.115,0,1.7.857,1.7,2.392V75h-1.454V70.8c0-.666-.136-1.3-.775-1.3-.353,0-.679.272-.815.816a2.255,2.255,0,0,0-.068.6V75h-1.455Z" transform="translate(859.587 28.204)" fill="#292c63"></path>
    <path id="Path_16" data-name="Path 16" d="M181.145,72.078c.014,1.482.693,1.889,1.469,1.889a3.039,3.039,0,0,0,1.183-.231l.217,1.033a4.337,4.337,0,0,1-1.658.313c-1.712,0-2.623-1.238-2.623-3.289,0-2.189,1.046-3.521,2.46-3.521,1.387,0,2.093,1.265,2.093,3.031a5.173,5.173,0,0,1-.04.775Zm1.795-1.033c.013-1.06-.34-1.686-.857-1.686-.625,0-.91.911-.938,1.686Z" transform="translate(857.451 28.204)" fill="#292c63"></path>
    <path id="Path_17" data-name="Path 17" d="M188.505,72.078c.014,1.482.693,1.889,1.468,1.889a3.033,3.033,0,0,0,1.183-.231l.218,1.033a4.338,4.338,0,0,1-1.658.313c-1.712,0-2.623-1.238-2.623-3.289,0-2.189,1.046-3.521,2.46-3.521,1.386,0,2.094,1.265,2.094,3.031a5.147,5.147,0,0,1-.041.775Zm1.795-1.033c.013-1.06-.341-1.686-.857-1.686-.625,0-.911.911-.938,1.686Z" transform="translate(855.447 28.204)" fill="#292c63"></path>
    <path id="Path_18" data-name="Path 18" d="M194.768,70.243c0-.611-.027-1.3-.055-1.862h1.264l.081.992h.041a1.569,1.569,0,0,1,1.346-1.1,1.972,1.972,0,0,1,.313.027v1.442a2.067,2.067,0,0,0-.313-.015,1.31,1.31,0,0,0-1.169,1.143,3.616,3.616,0,0,0-.055.625V75h-1.454Z" transform="translate(853.372 28.204)" fill="#292c63"></path>
    <path id="Path_19" data-name="Path 19" d="M200.555,66.577a.847.847,0,0,1,.014-1.686.845.845,0,0,1,0,1.686Zm-.694,7.5V67.461h1.455v6.619Z" transform="translate(851.989 29.125)" fill="#292c63"></path>
    <path id="Path_20" data-name="Path 20" d="M203.7,70.243c0-.747-.027-1.277-.055-1.862h1.264l.068.774H205a1.778,1.778,0,0,1,1.563-.883c1.115,0,1.7.857,1.7,2.392V75h-1.454V70.8c0-.666-.136-1.3-.775-1.3-.353,0-.679.272-.815.816a2.25,2.25,0,0,0-.068.6V75H203.7Z" transform="translate(850.941 28.204)" fill="#292c63"></path>
    <path id="Path_21" data-name="Path 21" d="M216.191,74.212c0,1.563-.244,2.284-.734,2.786a2.648,2.648,0,0,1-1.971.721,3.914,3.914,0,0,1-1.577-.313l.3-1.128a2.786,2.786,0,0,0,1.25.285c.87,0,1.291-.557,1.291-1.794v-.517h-.027a1.325,1.325,0,0,1-1.223.72c-1.346,0-2.011-1.495-2.011-3.235,0-2.311,1.046-3.466,2.161-3.466a1.34,1.34,0,0,1,1.223.816h.028l.082-.707h1.277c-.041.544-.068,1.183-.068,2.079Zm-1.441-3.479a1.776,1.776,0,0,0-.068-.49c-.1-.353-.3-.747-.734-.747-.693,0-1.02.938-1.02,2.188,0,1.441.435,2.134.993,2.134.271,0,.584-.135.747-.693a1.548,1.548,0,0,0,.081-.557Z" transform="translate(848.804 28.204)" fill="#292c63"></path>
    <path id="Path_22" data-name="Path 22" d="M224.109,63.51V77.1h-1.115V63.51Z" transform="translate(845.672 29.501)" fill="#575756"></path>
    <path id="Path_23" data-name="Path 23" d="M233.831,73.91a3.228,3.228,0,0,1-1.346.231c-2.093,0-3.289-1.713-3.289-4.54,0-3.52,1.862-4.784,3.494-4.784a2.527,2.527,0,0,1,1.2.231l-.272,1.237a1.7,1.7,0,0,0-.87-.191c-.992,0-2.011.91-2.011,3.411,0,2.46.924,3.344,2.025,3.344a2.72,2.72,0,0,0,.9-.163Z" transform="translate(843.983 29.145)" fill="#4c76ba"></path>
    <path id="Path_24" data-name="Path 24" d="M238.584,75.109c-1.4,0-2.364-1.169-2.364-3.4,0-2.406,1.183-3.439,2.42-3.439,1.386,0,2.337,1.209,2.337,3.4,0,2.678-1.386,3.439-2.377,3.439Zm.055-1.115c.72,0,.883-1.3.883-2.311,0-.964-.162-2.3-.91-2.3-.788,0-.938,1.333-.938,2.3,0,1.115.191,2.311.952,2.311Z" transform="translate(842.07 28.204)" fill="#4c76ba"></path>
    <path id="Path_25" data-name="Path 25" d="M244.214,70.243c0-.611-.027-1.3-.054-1.862h1.263l.081.992h.041a1.571,1.571,0,0,1,1.346-1.1,1.962,1.962,0,0,1,.312.027v1.442a2.052,2.052,0,0,0-.312-.015,1.311,1.311,0,0,0-1.169,1.143,3.7,3.7,0,0,0-.054.625V75h-1.455Z" transform="translate(839.909 28.204)" fill="#4c76ba"></path>
    <path id="Path_26" data-name="Path 26" d="M249.314,70.243c0-.611-.028-1.3-.055-1.862h1.264l.081.992h.041a1.569,1.569,0,0,1,1.346-1.1,1.972,1.972,0,0,1,.313.027v1.442a2.067,2.067,0,0,0-.313-.015,1.31,1.31,0,0,0-1.169,1.143,3.7,3.7,0,0,0-.054.625V75h-1.455Z" transform="translate(838.52 28.204)" fill="#4c76ba"></path>
    <path id="Path_27" data-name="Path 27" d="M256.276,75.109c-1.4,0-2.365-1.169-2.365-3.4,0-2.406,1.183-3.439,2.419-3.439,1.386,0,2.338,1.209,2.338,3.4,0,2.678-1.386,3.439-2.379,3.439Zm.054-1.115c.72,0,.883-1.3.883-2.311,0-.964-.163-2.3-.91-2.3-.789,0-.938,1.333-.938,2.3,0,1.115.191,2.311.951,2.311Z" transform="translate(837.254 28.204)" fill="#4c76ba"></path>
    <path id="Path_28" data-name="Path 28" d="M261.667,73.627a2.228,2.228,0,0,0,1.142.354.728.728,0,0,0,.829-.761c0-.408-.19-.68-.8-1.074a2.207,2.207,0,0,1-1.345-1.889,1.931,1.931,0,0,1,2.025-1.984,2.536,2.536,0,0,1,1.264.326l-.285,1.074a1.678,1.678,0,0,0-.91-.286.679.679,0,0,0-.748.694c0,.353.163.557.788.965a2.343,2.343,0,0,1,1.36,2.011,1.958,1.958,0,0,1-2.188,2.026,2.561,2.561,0,0,1-1.415-.381Z" transform="translate(835.22 28.204)" fill="#4c76ba"></path>
    <path id="Path_29" data-name="Path 29" d="M268.345,66.577a.847.847,0,0,1,.014-1.686.845.845,0,0,1,0,1.686Zm-.693,7.5V67.461h1.455v6.619Z" transform="translate(833.531 29.125)" fill="#4c76ba"></path>
    <path id="Path_30" data-name="Path 30" d="M273.516,75.109c-1.4,0-2.364-1.169-2.364-3.4,0-2.406,1.183-3.439,2.419-3.439,1.386,0,2.337,1.209,2.337,3.4,0,2.678-1.386,3.439-2.377,3.439Zm.055-1.115c.72,0,.883-1.3.883-2.311,0-.964-.163-2.3-.91-2.3-.788,0-.938,1.333-.938,2.3,0,1.115.191,2.311.952,2.311Z" transform="translate(832.559 28.204)" fill="#4c76ba"></path>
    <path id="Path_31" data-name="Path 31" d="M279.145,70.243c0-.747-.027-1.277-.055-1.862h1.264l.068.774h.027a1.777,1.777,0,0,1,1.563-.883c1.114,0,1.7.857,1.7,2.392V75h-1.454V70.8c0-.666-.136-1.3-.774-1.3-.354,0-.68.272-.816.816a2.284,2.284,0,0,0-.068.6V75h-1.454Z" transform="translate(830.398 28.204)" fill="#4c76ba"></path>
    <path id="Path_32" data-name="Path 32" d="M290.41,65.05a7.7,7.7,0,0,1,1.7-.177,3.21,3.21,0,0,1,2.3.694,2.643,2.643,0,0,1,.734,1.957,2.785,2.785,0,0,1-2.882,2.99,3.886,3.886,0,0,1-.408-.014v3.575H290.41Zm1.441,4.254a1.4,1.4,0,0,0,.354.027c.951,0,1.481-.653,1.481-1.7,0-.857-.354-1.577-1.332-1.577a1.657,1.657,0,0,0-.5.068Z" transform="translate(827.316 29.13)" fill="#4c76ba"></path>
    <path id="Path_33" data-name="Path 33" d="M298.18,70.243c0-.611-.027-1.3-.054-1.862h1.263l.081.992h.041a1.569,1.569,0,0,1,1.346-1.1,1.969,1.969,0,0,1,.312.027v1.442a2.062,2.062,0,0,0-.312-.015,1.31,1.31,0,0,0-1.169,1.143,3.7,3.7,0,0,0-.055.625V75H298.18Z" transform="translate(825.215 28.204)" fill="#4c76ba"></path>
    <path id="Path_34" data-name="Path 34" d="M305.141,75.109c-1.4,0-2.364-1.169-2.364-3.4,0-2.406,1.183-3.439,2.419-3.439,1.386,0,2.337,1.209,2.337,3.4,0,2.678-1.386,3.439-2.377,3.439Zm.055-1.115c.72,0,.883-1.3.883-2.311,0-.964-.163-2.3-.91-2.3-.788,0-.938,1.333-.938,2.3,0,1.115.191,2.311.952,2.311Z" transform="translate(823.948 28.204)" fill="#4c76ba"></path>
    <path id="Path_35" data-name="Path 35" d="M312.342,66.162v1.645h1.278v1.046h-1.278v3.438c0,.816.313,1.02.68,1.02a2.292,2.292,0,0,0,.448-.041L313.5,74.4a3.386,3.386,0,0,1-.951.109,1.618,1.618,0,0,1-1.169-.408,2.335,2.335,0,0,1-.489-1.794V68.853H310.1V67.807h.788V66.665Z" transform="translate(821.954 28.779)" fill="#4c76ba"></path>
    <path id="Path_36" data-name="Path 36" d="M317.08,72.078c.014,1.482.693,1.889,1.468,1.889a3.035,3.035,0,0,0,1.183-.231l.217,1.033a4.338,4.338,0,0,1-1.658.313c-1.712,0-2.623-1.238-2.623-3.289,0-2.189,1.046-3.521,2.46-3.521,1.386,0,2.093,1.265,2.093,3.031a5.049,5.049,0,0,1-.041.775Zm1.794-1.033c.013-1.06-.34-1.686-.856-1.686-.624,0-.91.911-.937,1.686Z" transform="translate(820.439 28.204)" fill="#4c76ba"></path>
    <path id="Path_37" data-name="Path 37" d="M326.745,74.87a2.62,2.62,0,0,1-1.114.218c-1.577,0-2.623-1.169-2.623-3.344,0-1.984,1.1-3.452,2.854-3.452a2.294,2.294,0,0,1,.952.19l-.218,1.156a1.9,1.9,0,0,0-.707-.15c-.937,0-1.427,1.006-1.427,2.23,0,1.359.544,2.174,1.427,2.174a1.638,1.638,0,0,0,.707-.15Z" transform="translate(818.44 28.199)" fill="#4c76ba"></path>
    <path id="Path_38" data-name="Path 38" d="M331.078,66.162v1.645h1.277v1.046h-1.277v3.438c0,.816.312,1.02.679,1.02a2.3,2.3,0,0,0,.449-.041l.028,1.129a3.391,3.391,0,0,1-.952.109,1.618,1.618,0,0,1-1.169-.408,2.335,2.335,0,0,1-.488-1.794V68.853h-.789V67.807h.789V66.665Z" transform="translate(816.854 28.779)" fill="#4c76ba"></path>
    <path id="Path_39" data-name="Path 39" d="M335.536,66.577a.847.847,0,0,1,.014-1.686.845.845,0,0,1,0,1.686Zm-.693,7.5V67.461H336.3v6.619Z" transform="translate(815.236 29.125)" fill="#4c76ba"></path>
    <path id="Path_40" data-name="Path 40" d="M340.707,75.109c-1.4,0-2.364-1.169-2.364-3.4,0-2.406,1.183-3.439,2.42-3.439,1.386,0,2.337,1.209,2.337,3.4,0,2.678-1.386,3.439-2.378,3.439Zm.055-1.115c.72,0,.883-1.3.883-2.311,0-.964-.162-2.3-.91-2.3-.788,0-.938,1.333-.938,2.3,0,1.115.191,2.311.952,2.311Z" transform="translate(814.265 28.204)" fill="#4c76ba"></path>
    <path id="Path_41" data-name="Path 41" d="M346.337,70.243c0-.747-.027-1.277-.054-1.862h1.263l.068.774h.027a1.777,1.777,0,0,1,1.562-.883c1.116,0,1.7.857,1.7,2.392V75h-1.454V70.8c0-.666-.135-1.3-.774-1.3-.354,0-.68.272-.816.816a2.256,2.256,0,0,0-.068.6V75h-1.455Z" transform="translate(812.103 28.204)" fill="#4c76ba"></path>
    <path id="Path_42" data-name="Path 42" d="M358.809,63.51V77.1H357.7V63.51Z" transform="translate(808.996 29.501)" fill="#575756"></path>
    <rect id="Rectangle_5" data-name="Rectangle 5" width="93.258" height="76.563" rx="17.576" transform="translate(900 44)" fill="#4c76ba"></rect>
    <path id="Path_57" data-name="Path 57" d="M74.269,35.965H75.8V19.485H74.269s-1.205,6.752-10.611,1.688c0,0-17.444-6.592-26.447-2.573,0,0-15.274,2.331-13.1,15.515,0,0,2.251,8.038,20.1,10.932,0,0,23.151,4.18,26.205,8.441,0,0,5.949,7.878-6.833,10.611,0,0-28.7,3.859-36.978-19.614H24.832v21.7H26.44s3.054-7.718,15.514-2.331c0,0,20.5,9.485,35.129-3.7,0,0,13.746-17.765-15.836-22.428,0,0-27.974-3.537-28.617-10.048,0,0-.242-8.762,14.389-8.36C47.019,19.325,68.442,18.7,74.269,35.965Z" transform="translate(894.544 40.05)" fill="#fff"></path>
    <path id="Path_82" data-name="Path 82" d="M.826-9.45v8.9H2.239v-8.9Zm2.733,8.9H4.971V-4.526a2.195,2.195,0,0,1,.066-.581c.132-.528.449-.792.792-.792.621,0,.753.634.753,1.267V-.552H7.995V-4.764c0-1.492-.568-2.324-1.65-2.324a1.726,1.726,0,0,0-1.518.858H4.8l-.066-.753H3.506c.026.568.053,1.083.053,1.809Zm8.529-9.136v3.3h-.026a1.165,1.165,0,0,0-1.122-.7C9.9-7.087,8.919-6,8.919-3.747c0,1.941.7,3.3,1.954,3.3a1.513,1.513,0,0,0,1.333-.871h.04l.079.766H13.54c-.026-.488-.053-1.215-.053-1.743V-9.688Zm0,6.865a1.37,1.37,0,0,1-.053.422c-.172.647-.5.792-.766.792-.594,0-.937-.832-.937-2.126,0-1.149.251-2.152.964-2.152.422,0,.713.449.766.964a2.065,2.065,0,0,1,.026.4Zm6.9-4.159H17.58V-2.81a1.7,1.7,0,0,1-.079.554.791.791,0,0,1-.713.634c-.581,0-.753-.647-.753-1.558v-3.8h-1.4v3.974c0,1.677.462,2.561,1.637,2.561a1.73,1.73,0,0,0,1.439-.779h.026l.092.673h1.215c-.026-.541-.053-1.175-.053-1.861Zm.819,6.139a2.518,2.518,0,0,0,1.373.37,1.911,1.911,0,0,0,2.126-1.98A2.257,2.257,0,0,0,22-4.394c-.621-.4-.779-.594-.779-.937A.659.659,0,0,1,21.949-6a1.634,1.634,0,0,1,.885.277l.29-1.043a2.521,2.521,0,0,0-1.241-.317A1.883,1.883,0,0,0,19.916-5.16a2.17,2.17,0,0,0,1.307,1.835c.594.383.779.647.779,1.043a.713.713,0,0,1-.805.739,2.2,2.2,0,0,1-1.109-.343Zm4.608-7.5v1.36h-.766v1.03h.766v3.34a2.289,2.289,0,0,0,.475,1.743,1.571,1.571,0,0,0,1.135.4,3.281,3.281,0,0,0,.924-.106l-.026-1.1a2.325,2.325,0,0,1-.436.04c-.356,0-.66-.2-.66-.99V-5.952h1.241v-1.03H25.831V-8.7ZM27.8-.552h1.413V-3.945a2.711,2.711,0,0,1,.053-.62A1.261,1.261,0,0,1,30.4-5.675a.946.946,0,0,1,.29.026V-7.061a1.557,1.557,0,0,0-.29-.026A1.52,1.52,0,0,0,29.092-6h-.04l-.079-.977H27.745c.013.554.053,1.215.053,1.809Zm4.9,0V-6.982H31.283V-.552Zm-.713-8.925a.747.747,0,0,0-.753.819.738.738,0,0,0,.726.805.749.749,0,0,0,.779-.805A.747.747,0,0,0,31.983-9.477ZM37.871-.552a10.226,10.226,0,0,1-.079-1.465V-4.579c0-1.373-.422-2.508-2.086-2.508a3.579,3.579,0,0,0-1.769.462l.264.964a2.18,2.18,0,0,1,1.2-.356c.7,0,.964.475.964,1.135v.172C34.914-4.7,33.514-4,33.514-2.348a1.718,1.718,0,0,0,1.624,1.9,1.585,1.585,0,0,0,1.36-.766h.026l.079.66Zm-1.465-2.02a1.257,1.257,0,0,1-.04.33.854.854,0,0,1-.805.739c-.317,0-.7-.264-.7-.99,0-1.122.99-1.267,1.545-1.281ZM38.98-.552h1.413V-9.688H38.98Zm8.674-1.333a2.335,2.335,0,0,1-.871.158c-1.069,0-1.967-.858-1.967-3.248,0-2.429.99-3.314,1.954-3.314a1.844,1.844,0,0,1,.845.172l.264-1.188a2.5,2.5,0,0,0-1.162-.224c-1.584,0-3.393,1.228-3.393,4.647,0,2.746,1.162,4.41,3.195,4.41A3.141,3.141,0,0,0,47.826-.7Zm.911,1.333h1.413V-9.688H48.565Zm6.8-2.838c.013-.172.04-.383.04-.753,0-1.716-.687-2.944-2.033-2.944-1.373,0-2.4,1.294-2.4,3.419,0,1.994.9,3.195,2.548,3.195a4.121,4.121,0,0,0,1.611-.3l-.2-1.017a2.8,2.8,0,0,1-1.149.238c-.753,0-1.426-.4-1.439-1.835Zm-3.01-1c.026-.753.3-1.637.911-1.637.5,0,.845.607.832,1.637ZM60.3-.552a10.226,10.226,0,0,1-.079-1.465V-4.579c0-1.373-.422-2.508-2.086-2.508a3.579,3.579,0,0,0-1.769.462l.264.964a2.18,2.18,0,0,1,1.2-.356c.7,0,.964.475.964,1.135v.172C57.344-4.7,55.945-4,55.945-2.348a1.718,1.718,0,0,0,1.624,1.9,1.585,1.585,0,0,0,1.36-.766h.026l.079.66Zm-1.465-2.02a1.257,1.257,0,0,1-.04.33.854.854,0,0,1-.805.739c-.317,0-.7-.264-.7-.99,0-1.122.99-1.267,1.545-1.281Zm2.574,2.02h1.413V-4.526a2.195,2.195,0,0,1,.066-.581c.132-.528.449-.792.792-.792.62,0,.753.634.753,1.267V-.552h1.413V-4.764c0-1.492-.568-2.324-1.65-2.324a1.726,1.726,0,0,0-1.518.858h-.026l-.066-.753H61.358c.026.568.053,1.083.053,1.809Zm7.024,0V-6.982H67.022V-.552Zm-.713-8.925a.747.747,0,0,0-.753.819.738.738,0,0,0,.726.805.749.749,0,0,0,.779-.805A.747.747,0,0,0,67.721-9.477ZM69.609-.552h1.413V-4.526a2.195,2.195,0,0,1,.066-.581c.132-.528.449-.792.792-.792.62,0,.753.634.753,1.267V-.552h1.413V-4.764c0-1.492-.568-2.324-1.65-2.324a1.726,1.726,0,0,0-1.518.858H70.85l-.066-.753H69.556c.026.568.053,1.083.053,1.809Zm8.766-6.429L78.3-6.3H78.27a1.318,1.318,0,0,0-1.188-.792c-1.083,0-2.1,1.122-2.1,3.367,0,1.69.647,3.142,1.954,3.142a1.3,1.3,0,0,0,1.188-.7h.026v.5c0,1.2-.409,1.743-1.254,1.743A2.7,2.7,0,0,1,75.682.689l-.29,1.1a3.81,3.81,0,0,0,1.531.3,2.573,2.573,0,0,0,1.914-.7C79.313.9,79.55.2,79.55-1.318V-4.962c0-.858.026-1.492.066-2.02ZM78.151-2.9a1.468,1.468,0,0,1-.079.528c-.158.541-.462.673-.726.673-.541,0-.964-.673-.964-2.06,0-1.228.317-2.126.99-2.126.422,0,.62.37.713.726a1.7,1.7,0,0,1,.066.462Z" transform="translate(1170.384 103.926)" fill="#d51224"></path>
  </g>
</svg>
